<?xml version="1.0" standalone="no"?>
<!DOCTYPE svg PUBLIC "-//W3C//DTD SVG 1.1//EN" "http://www.w3.org/Graphics/SVG/1.1/DTD/svg11.dtd" >
<svg xmlns="http://www.w3.org/2000/svg">
<metadata>
Created by FontForge 20120731 at Sat Jan 30 18:14:45 2016
 By Ads
</metadata>
<defs>
<font id="iconfont" horiz-adv-x="1024" >
  <font-face 
    font-family="iconfont"
    font-weight="500"
    font-stretch="normal"
    units-per-em="1024"
    panose-1="2 0 6 3 0 0 0 0 0 0"
    ascent="896"
    descent="-128"
    x-height="792"
    bbox="-0.5 -224 1024 879"
    underline-thickness="50"
    underline-position="-100"
    unicode-range="U+0078-F0089"
  />
<missing-glyph horiz-adv-x="374" 
d="M34 0v682h272v-682h-272zM68 34h204v614h-204v-614z" />
    <glyph glyph-name=".notdef" horiz-adv-x="374" 
d="M34 0v682h272v-682h-272zM68 34h204v614h-204v-614z" />
    <glyph glyph-name=".null" horiz-adv-x="0" 
 />
    <glyph glyph-name="nonmarkingreturn" horiz-adv-x="341" 
 />
    <glyph glyph-name="x" unicode="x" horiz-adv-x="1001" 
d="M281 543q-27 -1 -53 -1h-83q-18 0 -36.5 -6t-32.5 -18.5t-23 -32t-9 -45.5v-76h912v41q0 16 -0.5 30t-0.5 18q0 13 -5 29t-17 29.5t-31.5 22.5t-49.5 9h-133v-97h-438v97zM955 310v-52q0 -23 0.5 -52t0.5 -58t-10.5 -47.5t-26 -30t-33 -16t-31.5 -4.5q-14 -1 -29.5 -0.5
t-29.5 0.5h-32l-45 128h-439l-44 -128h-29h-34q-20 0 -45 1q-25 0 -41 9.5t-25.5 23t-13.5 29.5t-4 30v167h911zM163 247q-12 0 -21 -8.5t-9 -21.5t9 -21.5t21 -8.5q13 0 22 8.5t9 21.5t-9 21.5t-22 8.5zM316 123q-8 -26 -14 -48q-5 -19 -10.5 -37t-7.5 -25t-3 -15t1 -14.5
t9.5 -10.5t21.5 -4h37h67h81h80h64h36q23 0 34 12t2 38q-5 13 -9.5 30.5t-9.5 34.5q-5 19 -11 39h-368zM336 498v228q0 11 2.5 23t10 21.5t20.5 15.5t34 6h188q31 0 51.5 -14.5t20.5 -52.5v-227h-327z" />
    <glyph glyph-name="uniE602" unicode="&#xe602;" 
d="M869 -170h-716l-5 1q-31 6 -66 35.5t-45 59.5q-1 2 -1.5 4t-1 4.5t-0.5 4.5l-2 4q0 2 -1 4v716l1 2l1 3q3 17 14 35.5t26.5 34.5t33.5 28t34 16q2 1 4 1.5t4.5 1t3.5 0.5h638q60 -13 116 -61q67 -56 86 -139v-638q-2 -4 -2 -5q-6 -33 -41 -66.5t-69 -42.5
q-3 -1 -5.5 -1.5t-6.5 -1.5zM511 -48h314q19 0 29.5 10.5t10.5 29.5v246q0 9 -2.5 16.5t-7.5 12.5t-12.5 8t-17.5 3h-628q-40 0 -40 -40v-246q0 -8 1 -12q7 -28 39 -28h314zM493 401h202q42 0 42 42v174q0 41 -42 41h-433q-41 0 -41 -41v-175q0 -20 10 -30.5t31 -10.5h231z
M543 597h126v-130h-126v130zM543 597z" />
    <glyph glyph-name="uniE603" unicode="&#xe603;" 
d="M832 650h-640q-7 0 -13.5 -3t-11.5 -7.5t-7.5 -11t-2.5 -14.5v-568q0 -10 4.5 -18t12.5 -13t18 -5h640q15 0 25 10.5t10 25.5v568q0 8 -2.5 14.5t-7.5 11t-11.5 7.5t-13.5 3zM761 117h-498v178l107 106l178 -177l106 106l107 -106v-107zM690 401q-20 0 -36 9.5t-25.5 26
t-9.5 35.5q0 30 20.5 50.5t50 20.5t50.5 -20.5t21 -50t-21 -50.5t-50 -21zM690 401zM125 227l-116 103l116 104v-207zM885 227l116 103l-116 104v-207z" />
    <glyph glyph-name="uniE605" unicode="&#xe605;" 
d="M892 747h-764q-12 0 -24 -5t-20.5 -13.5t-13.5 -20t-5 -24.5v-287q0 -26 18.5 -44.5t44.5 -18.5h255v63h-255v287h764v-287h-191v-63h191q17 0 32 8.5t23.5 23t8.5 31.5v287q0 26 -19 44.5t-45 18.5zM765 238h-127v191q-1 4 -3 10.5t-10 23.5t-17.5 29.5t-27 22.5
t-38.5 10q-12 -1 -22.5 -4.5t-19 -9t-16 -12.5t-12.5 -15t-9.5 -15.5t-7.5 -14.5t-5 -12.5t-3 -9.5v-3v-318l-64 64q-3 0 -8.5 1t-21 1.5t-30 -2t-33.5 -10.5t-34 -22q-24 -22 -32 -53.5t-4 -52.5l4 -21l191 -159q1 1 7 -0.5t12 -2.5t14 2.5t15 12.5q5 7 5.5 15t-3 14.5
t-7.5 11.5t-8 7l-3 3l-159 127q-11 16 1 35t32 28.5t30 0.5q5 -4 44.5 -43.5t76.5 -77.5l38 -38v477h64v-191q0 -22 18 -42.5t41 -20.5h121q45 0 75.5 -25.5t30.5 -70.5v-159q0 -18 16 -26.5t32 -1t16 27.5v159q0 39 -11 68.5t-27.5 46t-39 27t-42 14t-39.5 3.5z" />
    <glyph glyph-name="uniE60B" unicode="&#xe60b;" 
d="M511 846q54 0 103 -20.5t86 -57.5q78 -78 78 -189t-78 -189q-6 -6 -12.5 -11.5t-13.5 -11t-14 -9.5q85 -32 149 -97q59 -58 91.5 -135t32.5 -162q0 -10 -5 -18.5t-13.5 -13.5t-17.5 -5q-15 0 -26 11t-11 26q0 71 -27 134.5t-75 111.5t-112 75t-135 27v0q-71 0 -135 -27
t-112 -75t-75 -111.5t-27 -134.5q0 -8 -3 -14.5t-8 -11.5t-11.5 -8t-14.5 -3q-15 0 -25.5 11t-10.5 26q0 85 32.5 162t91.5 135q64 65 149 97q-22 14 -40 32q-78 79 -78 189.5t78 188.5q25 24 54.5 41.5t64 27t70.5 9.5zM648 716.5q-57 56.5 -137 56.5t-137 -56
q-27 -27 -42 -62.5t-15 -75.5q0 -80 57 -137q56 -57 137 -57v0q81 0 137 57q57 57 57 137.5t-57 137z" />
    <glyph glyph-name="uniE615" unicode="&#xe615;" 
d="M555 597q124 -16 191 -97.5t67 -199.5q0 -10 -0.5 -19.5t-1.5 -19t-3 -19t-4 -18.5t-5 -18t-6 -17l149 -86q40 88 40 197q0 122 -53 225t-151 168.5t-223 75.5v-172zM469 3q-100 17 -177.5 102.5t-77.5 194.5q0 73 37.5 138.5t95.5 106.5t122 52v172q-79 -8 -156 -48
t-136.5 -101.5t-96 -146t-36.5 -173.5q0 -119 62 -224.5t159.5 -169.5t203.5 -75v172zM749 115q-36 -47 -84 -75.5t-110 -36.5v-172q97 9 190 62.5t150 134.5z" />
    <glyph glyph-name="uniE62F" unicode="&#xe62f;" 
d="M976 515q48 -103 48 -215q0 -104 -40.5 -199t-109 -163.5t-163.5 -109t-199 -40.5t-199 40.5t-163.5 109t-109 163.5t-40.5 199t40.5 199t109 163.5t163.5 109t199 40.5q67 0 130.5 -17t118.5 -48t101 -74l-366 -366l-163 163l-136 -136l299 -300z" />
    <glyph glyph-name="uniE639" unicode="&#xe639;" 
d="M138.5 -33.5q88.5 -98.5 212 -138.5t250.5 -13.5t226 114.5l-652 726q-98 -88 -138 -212t-13.5 -251t115 -225.5zM568 304l301 -335q91 82 128 196t12.5 231.5t-105.5 208.5zM871 54l-221 246l246 221q71 -108 64 -238t-89 -229zM219 685l301 -335l335 301
q-81 91 -195.5 128t-232 12.5t-208.5 -106.5z" />
    <glyph glyph-name="uniE63B" unicode="&#xe63b;" 
d="M885 577l-83 82l-289 -289l-290 291l-83 -82l291 -291l-290 -290l82 -82l290 289l289 -289l83 83l-289 289z" />
    <glyph glyph-name="uniE63E" unicode="&#xe63e;" 
d="M477 -172q-45 0 -61 21t-16 67v28v38q-1 40 -1 96q-1 26 -1 50.5t-1 49.5q-1 48 -1 76q0 41 -8 64t-36 22q-21 0 -50 1q-10 1 -18 1h-18q-8 0 -15 -1q-37 0 -47 20t15 52q25 31 58 74l70 88q35 45 69.5 89.5t60.5 77.5q24 31 47 32q11 0 23 -6.5t24 -21.5
q5 -6 10.5 -12.5t11 -13.5t11.5 -14t12.5 -15t13.5 -16q33 -41 68 -84q37 -46 71 -87q34 -42 62 -75q30 -36 23 -60t-44 -24h-8h-9h-9q-13 -1 -30 -1q-5 0 -10.5 -0.5t-10.5 -0.5h-10q-15 -1 -28 -1q-26 -1 -33 -16.5t-6 -43.5q0 -30 1 -79q0 -46 1 -103q0 -53 1 -104
q1 -50 1 -82q0 -14 -2 -28.5t-9.5 -26.5t-22 -20.5t-37.5 -8.5h-54q-25 -1 -58 -2z" />
    <glyph glyph-name="uniE63F" unicode="&#xe63f;" 
d="M584 774q22 0 37 -5.5t23 -16t12 -27t4 -40.5v-66q1 -11 1 -23v-24v-24v-25v-51q0 -24 1 -48v-77q0 -14 1 -25.5t2.5 -21t4.5 -17.5q4 -12 13 -17.5t23 -4.5q20 0 50 -2q28 -1 50 -1q37 0 47 -19q5 -10 1.5 -22.5t-15.5 -28.5q-13 -15 -27.5 -33.5t-31.5 -41.5
q-11 -14 -22.5 -28.5t-23.5 -29.5l-24 -30l-24 -30q-12 -15 -23.5 -29.5t-23.5 -29.5q-18 -22 -33 -41.5t-28 -35.5q-24 -31 -47 -32q-6 0 -11.5 1.5t-11.5 5t-12 9t-12 13t-13 16t-14 17.5t-15 18.5t-17 19.5q-16 20 -33 41t-35 44q-18 22 -35.5 43.5t-34.5 42.5
q-16 21 -31.5 40t-29.5 36q-31 37 -24 61q3 8 9 13t15 7.5t22 2.5h25q15 0 30 1q17 1 31 2q16 1 27 1q28 0 34 15.5t6 42.5v17v19v21v23q-1 25 -1 51v52v105q-1 25 -1 46v36q0 13 2 28q1 7 3.5 14t6.5 13q8 12 21.5 20t38.5 8h54q9 0 18.5 0.5t19.5 0.5h21z" />
    <glyph glyph-name="uniE64C" unicode="&#xe64c;" 
d="M916 134v504q22 8 36 27t14 43q0 21 -10 38t-27 27t-37 10q-16 0 -30.5 -6.5t-24.5 -18t-15 -26.5h-619q-8 22 -27.5 36.5t-43.5 14.5q-15 0 -28.5 -6t-23.5 -16t-16 -24t-6 -29q0 -24 14 -43t37 -27v-504q-11 -4 -20.5 -10.5t-16 -16t-10.5 -20.5t-4 -23q0 -20 10 -37
t27 -27t37 -10q24 0 43.5 14t27.5 36h619q3 -11 10 -20t16 -16t20.5 -10.5t23.5 -3.5q31 0 52.5 21.5t21.5 52.5q0 24 -14 43.5t-36 26.5zM892 743q9 0 17 -5t12.5 -12.5t4.5 -17.5q0 -14 -10 -24t-24 -10q-9 0 -17 4.5t-12.5 12.5t-4.5 17q0 15 10 25t24 10zM98 708.5
q0 14.5 10 24.5t24 10q10 0 17.5 -5t12 -12.5t4.5 -17t-4.5 -17.5t-12 -12.5t-17.5 -4.5q-14 0 -24 10t-10 24.5zM132 30q-14 0 -24 10t-10 24t10 24t24 10q4 0 8 -1t7.5 -2.5t6.5 -4t5 -5.5t4 -6.5t2.5 -7t0.5 -7.5q0 -14 -10 -24t-24 -10zM822 87h-619q-6 17 -18.5 29.5
t-28.5 17.5v504q11 4 20 10.5t16 16t11 20.5h619q3 -8 7.5 -15.5t10.5 -13.5t13 -10.5t16 -7.5v-504q-35 -12 -47 -47zM892 30q-6 0 -11 1.5t-9 4.5t-7.5 7.5t-5 9.5t-1.5 10.5t1.5 11t5 9.5t7.5 7.5t9 5t11 1.5q14 0 24 -10t10 -24t-10 -24t-24 -10z" />
    <glyph glyph-name="uniE654" unicode="&#xe654;" 
d="M780 -224l-551 509l551 509v-210l-340 -298l340 -298v-212z" />
    <glyph glyph-name="uniE656" unicode="&#xe656;" 
d="M915 261h-499q-4 0 -8.5 1t-8 2.5t-7 4.5t-6 6t-4.5 7t-3 8.5t-1 8.5q0 11 5 19.5t14 14t19 5.5h499q16 0 27.5 -11.5t11.5 -27.5t-11.5 -27t-27.5 -11zM919 568h-503q-16 0 -27 11.5t-11 27.5t11 27t27 11h503q4 0 8.5 -1t8 -3t7 -4.5t6 -5.5t4.5 -7t3 -8.5t1 -8.5
q0 -26 -24 -36q-8 -2 -14 -3zM147 -85q-21 0 -38.5 10t-28 28t-10.5 38q0 32 22.5 54.5t54.5 22.5t54.5 -22.5t22.5 -54t-22.5 -54t-54.5 -22.5zM147 222q-10 0 -20 3t-18.5 8t-16 12t-12 15.5t-7.5 18.5t-3 20q0 32 22.5 54.5t54.5 22.5t54.5 -22.5t22.5 -54.5
q0 -9 -2 -17.5t-6 -16t-9 -14.5t-12 -12t-14.5 -9t-16 -6t-17.5 -2zM147 530q-32 0 -54.5 22.5t-22.5 54.5t22.5 54.5t54.5 22.5q21 0 38.5 -10.5t28 -28t10.5 -38.5q0 -6 -1 -12.5t-3 -12t-4.5 -11t-6 -10t-8 -9t-9 -8t-10 -6t-11 -4.5t-12 -3t-12.5 -1zM416 30h501
q16 0 27 -11.5t11 -27t-11 -27t-27 -11.5h-501q-16 0 -27 11t-11 27q0 11 5 20t14 14t19 5z" />
    <glyph glyph-name="uniE657" unicode="&#xe657;" 
d="M64 -148l104 45l-59 61zM242 189l169 -172l465 473l-169 172zM841 748q-31 0 -57.5 -15t-42.5 -40l165 -168q16 11 28.5 26.5t19 35t6.5 40.5q0 19 -6 38t-17 33.5t-25.5 26t-33 17.5t-37.5 6zM124 -11l75 -72l179 69l-163 165z" />
    <glyph glyph-name="uniE65C" unicode="&#xe65c;" 
d="M985 -82l-75 76q13 12 20.5 28.5t7.5 34.5v737q0 35 -25 60t-60 25h-737q-23 0 -42.5 -11.5t-31 -31t-11.5 -42.5v-737q0 -35 25 -60t60 -25h737q9 0 19 2l83 -85q6 -6 14.5 -6t14.5 6t6 14.5t-5 14.5zM801 104q54 63 54 147q0 94 -66 160q-36 36 -84 53l20 20l170 -169
v-258q0 -10 -4 -18.5t-11 -13.5zM433 251q0 82 57.5 139.5t139 57.5t139.5 -57.5t58 -139t-58 -139.5t-139 -58q-54 0 -99 26.5t-71.5 72t-26.5 98.5zM116 836h737q17 0 29.5 -12.5t12.5 -29.5v-443l-170 169l-48 -48q-23 5 -47 5q-45 0 -86.5 -17t-73.5 -49t-49 -73.5
t-17 -86.5q0 -24 5 -47l-31 -31l-141 140l-163 -163v644q0 9 3.5 16.5t9 13t13 9t16.5 3.5zM74 57v57l163 163l262 -262h-383q-7 0 -13.5 2t-11.5 6t-9 9t-6 11.5t-2 13.5zM535 15l-139 140l21 21q17 -48 53 -84q66 -67 160 -67q80 0 142 51v-1l59 -60h-296zM324 579z
M248 579h153q0 -16 -6 -30t-16.5 -24.5t-24.5 -16.5t-30 -6q-21 0 -38.5 10.5t-27.5 28t-10 38.5z" />
    <glyph glyph-name="uniE67E" unicode="&#xe67e;" 
d="M756 2h-607v438h140q4 5 11.5 14t34.5 34t58 45h-291q-19 0 -32.5 -14t-13.5 -33v-530q0 -19 13.5 -32.5t32.5 -13.5h701q19 0 33 13.5t14 32.5v265l-94 -76v-143zM679 377v-156l311 233l-311 234v-145q-77 0 -140 -22.5t-102.5 -56t-69 -79.5t-43.5 -84t-23 -79t-10 -56
t-2 -23q42 69 77.5 110.5t80.5 71t99.5 41t132.5 11.5zM679 377z" />
    <glyph glyph-name="uniE69C" unicode="&#xe69c;" 
d="M943 -11l-161 162q-15 15 -36.5 18t-39.5 -7l-30 30q74 93 74 213q0 93 -46 172t-125 125t-172 46t-172 -46t-125 -125t-46 -172t46 -172t125 -125t172 -46q119 0 213 74l30 -31q-10 -17 -7 -38.5t18 -36.5l162 -161q18 -19 44.5 -19t45.5 19l30 30q19 19 19 45.5
t-19 44.5zM128 405q0 76 37 140t101.5 101.5t140.5 37.5q116 0 198 -81.5t82 -197.5t-82 -198t-198 -82t-197.5 82t-81.5 198z" />
    <glyph glyph-name="uniE6B5" unicode="&#xe6b5;" 
d="M221 164h-32v513h32v-160h417v160h37l27 -26v-167h64v193l-64 64h-577v-641h256v63h-128v160h128v32h-160v-191zM541 677h32v-128h-32v128zM413 452v-417h417v417h-417zM798 67h-353v353h353v-353zM477 290q0 -25 6.5 -45.5t18 -34t24.5 -24t30 -16.5t30 -10t28.5 -5.5
t22.5 -2t14 -0.5v-51l1 -2q2 -1 3 0l109 102q2 2 2 4.5t-2 4.5l-109 101h-1h-2l-1 -2v-61q-10 0 -17.5 0.5t-22 2t-24.5 5t-22.5 10t-20.5 16t-13.5 24t-5.5 33.5q0 65 75 81q-54 -8 -88.5 -42.5t-34.5 -87.5z" />
    <glyph glyph-name="uniE6C7" unicode="&#xe6c7;" 
d="M539 485v-367q0 -21 32.5 -52t46.5 -33q3 0 -14 0h-49h-63h-68h-50h-21q10 4 24 10.5t37.5 28t22.5 45.5v370h-106q-34 0 -67 -20.5t-33 -54.5l1 157h510v-155l-16 23q-42 50 -107 50zM845 166h-51v54q0 7 -3.5 13t-9.5 10t-13 4t-13 -4t-9.5 -10t-3.5 -13v-54h-51
q-10 0 -17.5 -7.5t-7.5 -18.5t7.5 -19t17.5 -8h51v-53q0 -8 3.5 -14t9.5 -9.5t13 -3.5q11 0 18.5 8t7.5 19v53h51q10 0 17.5 8t7.5 19q0 7 -3 13t-9 9.5t-13 3.5zM947 540q0 15 -1.5 26.5t-5.5 21t-10 15.5t-14.5 10t-19.5 6t-26 2h-716q-29 0 -45.5 -8t-24 -25.5
t-7.5 -47.5v-480q0 -45 17 -63t60 -18h716h16h14q3 0 11.5 0.5t10.5 1.5t8 3t7 4.5t4 6.5t4 9.5t1.5 12.5t0.5 16v507zM1024 594v-588q0 -29 -13.5 -53.5t-37.5 -39t-51 -14.5h-820q-42 0 -72 31.5t-30 75.5v588q0 44 30 75.5t72 31.5h820q42 0 72 -31.5t30 -75.5z" />
    <glyph glyph-name="uniE700" unicode="&#xe700;" 
d="M10 125l438 571q15 19 39.5 26.5t48.5 0t39 -26.5l439 -571q11 -14 9.5 -28.5t-10 -26.5t-25.5 -20t-38 -8h-877q-42 0 -63 28t0 55z" />
    <glyph glyph-name="uniE729" unicode="&#xe729;" 
d="M922 390h-308v308q0 16 -5 32t-14.5 28.5t-22 22t-28 14.5t-32.5 5q-42 0 -72 -30t-30 -72v-308h-308q-42 0 -72 -30t-30 -72q0 -28 13.5 -51.5t37.5 -37t51 -13.5h308v-308q0 -42 30 -72t72 -30t72 30t30 72v308h308q42 0 72 30t30 72t-30 72t-72 30z" />
    <glyph glyph-name="uF000A" unicode="&#xf000a;" 
d="M210 572v-585q0 -52 37 -89t89 -37h376q34 0 63 17t45.5 45.5t16.5 63.5v585h-627zM378 -7q0 -11 -6 -19.5t-15 -8.5h-21q-9 0 -15 8.5t-6 19.5v468q0 7 2.5 13t7 10t10.5 4h23q5 0 10 -4t7.5 -10t2.5 -13v-468zM566 -7q0 -3 -0.5 -5.5t-1.5 -5.5l-2 -4q-1 -3 -2 -4
l-4 -4q-1 -1 -3 -2l-4 -2q-2 -1 -4 -1h-42q-9 0 -15 8.5t-6 19.5v468q0 7 2.5 13t7 10t10.5 4h44q4 0 7.5 -2.5t6.5 -6t4.5 -8.5t1.5 -10v-468zM733 461v-468q0 -6 -1.5 -11t-4.5 -8.5t-7 -6t-8 -2.5h-21q-9 0 -15 8t-6 20v468q0 7 2.5 13t7 10t10.5 4h23q9 -1 14.5 -8.5
t5.5 -18.5zM837 739h-627q-6 0 -12.5 -2t-11.5 -6t-9 -9t-6 -11.5t-2 -13.5v-21q0 -17 12 -29.5t29 -12.5h627q9 0 16.5 3.5t13.5 9t9 13.5t3 16v21q0 17 -12 29.5t-30 12.5z" />
    <glyph glyph-name="uF0074" unicode="&#xf0074;" 
d="M72 712q0 2 1.5 3.5t3.5 1.5h33q2 0 3 -2q1 0 1.5 -1t0.5 -2v-791h861q3 0 4.5 -1.5t1.5 -3.5v-33q0 -2 -2 -3q-1 -1 -2 -1.5t-2 -0.5h-904v834zM385 701q0 7 4.5 11.5t10.5 4.5h140q3 0 6 -1.5t5 -3.5t3 -5t1 -6v-723h-170v723zM172 488q0 7 4.5 11.5t10.5 4.5h140
q6 0 10.5 -4.5t4.5 -11.5v-510h-170v510zM598 275q0 6 4.5 10.5t10.5 4.5h140q6 0 11 -4q1 -2 2 -3.5t1.5 -3.5t0.5 -4v-297h-170v297zM811 62q0 6 5 11q2 2 4.5 3t5.5 1h140q7 0 11 -4q2 -2 3.5 -5t1.5 -6v-84h-171v84z" />
    <glyph glyph-name="uF0089" unicode="&#xf0089;" 
d="M619 -148h-504q-21 0 -36 15.5t-15 37.5v580l251 263h370q12 1 22 -2.5t17 -10.5t10 -16.5t2 -20.5v-300v-46h-60h-10v46v280h-336v-210h-196v-546h485v-70zM960 140h-160v160h-127v-160h-161v-127h160v-161h128v160h160v128z" />
  </font>
</defs>
</svg>
